<svg xmlns="http://www.w3.org/2000/svg" width="18" height="18" viewBox="0 0 18 18"><path d="M375.2,1014.8a8.6,8.6,0,0,1,6.4-2.6,9,9,0,0,1,6.4,2.6,8.448,8.448,0,0,1,2.6,6.4,9,9,0,0,1-2.6,6.4,8.449,8.449,0,0,1-6.4,2.6,9,9,0,0,1-6.4-2.6,8.448,8.448,0,0,1-2.6-6.4A9,9,0,0,1,375.2,1014.8Zm1.5,11.4a6.662,6.662,0,0,0,4.9,2.1,6.505,6.505,0,0,0,4.9-2.1,7.028,7.028,0,0,0,2-5,6.632,6.632,0,0,0-2-4.9,6.966,6.966,0,0,0-9.8,9.9Zm5.9-9v3h3v2h-3v3h-2v-3h-3v-2h3v-3h2Z" transform="translate(-372.6 -1012.2)" fill="#1462e1"/></svg>