<svg xmlns="http://www.w3.org/2000/svg" width="24" height="18" viewBox="0 0 24 18"><path d="M428.5,106.4a2.051,2.051,0,0,1,2,2v14a2.051,2.051,0,0,1-2,2h-20a2.051,2.051,0,0,1-2-2v-14a2.051,2.051,0,0,1,2-2Zm-7.9,15v-1c0-.9-.7-1.6-2.1-2.2a9.959,9.959,0,0,0-3.9-.9,9.587,9.587,0,0,0-3.9.9c-1.4.6-2.1,1.3-2.1,2.2v1Zm-3.9-11.1a2.9,2.9,0,1,0,.9,2.1A2.878,2.878,0,0,0,416.7,110.3Zm7.7,7.1a7.106,7.106,0,0,1-.4-2,4.477,4.477,0,0,1,.4-2H426l1.5-2-2-2a7.551,7.551,0,0,0-2.8,4,6.929,6.929,0,0,0-.3,2,6.448,6.448,0,0,0,.3,2,7.551,7.551,0,0,0,2.8,4l2-2-1.5-2Z" transform="translate(-406.5 -106.4)" fill="#1462e1"/></svg>