<svg xmlns="http://www.w3.org/2000/svg" width="512" height="491.972" viewBox="0 0 512 491.972"><path d="M452,.5H60a60.066,60.066,0,0,0-60,60v332a80.089,80.089,0,0,0,80,80H306a20,20,0,0,0,0-40H80a40.047,40.047,0,0,1-40-40v-271H472v184a20,20,0,0,0,40,0V60.5A60.066,60.066,0,0,0,452,.5Zm-81,40a20,20,0,1,1-20,20A20.024,20.024,0,0,1,371,40.5Zm100,20a20,20,0,1,1-20-20A20.024,20.024,0,0,1,471,60.5Zm-431,0a20.024,20.024,0,0,1,20-20H314.441a59.877,59.877,0,0,0,.359,41H40ZM384.883,280.285a20.012,20.012,0,0,0-8.348-5.012l-78.723-23.91a20,20,0,0,0-25.086,24.477l22.359,80.723a19.972,19.972,0,0,0,5.121,8.789L409.574,474.925a60,60,0,0,0,84.867-84.836Zm-63.9,19.918L360.11,312.09l73.926,74.09-28.289,28.289-73.516-73.652Zm145.16,146.438a20.014,20.014,0,0,1-28.27.016L434,442.782,462.289,414.5l3.855,3.863a20.018,20.018,0,0,1,0,28.281Zm0,0" transform="translate(0 -0.5)" fill="#fff"/></svg>