<svg xmlns="http://www.w3.org/2000/svg" width="20" height="20" viewBox="0 0 20 20"><path d="M300.6,1082.8a9.506,9.506,0,0,1,7.1-2.9,9.9,9.9,0,0,1,7.1,2.9,9.356,9.356,0,0,1,2.9,7.1,9.9,9.9,0,0,1-2.9,7.1,9.356,9.356,0,0,1-7.1,2.9,9.9,9.9,0,0,1-7.1-2.9,9.356,9.356,0,0,1-2.9-7.1A9.732,9.732,0,0,1,300.6,1082.8Zm1.4,12.7a7.73,7.73,0,0,0,5.6,2.4,7.568,7.568,0,0,0,5.6-2.4,8.146,8.146,0,0,0,2.4-5.6,7.568,7.568,0,0,0-2.4-5.6,8.146,8.146,0,0,0-5.6-2.4,7.568,7.568,0,0,0-5.6,2.4,7.733,7.733,0,0,0,0,11.2Zm8.3-9.7,1.4,1.4-2.6,2.6,2.6,2.6-1.4,1.4-2.6-2.6-2.6,2.6-1.4-1.4,2.6-2.6-2.6-2.6,1.4-1.4,2.6,2.6Z" transform="translate(-297.7 -1079.9)" fill="#545454"/></svg>