<svg xmlns="http://www.w3.org/2000/svg" width="231.039" height="449.477" viewBox="0 0 231.039 449.477"><g transform="translate(-719.684 -783)"><path d="M366.6,258.34h2.47V190.685a39.157,39.157,0,0,1,39.157-39.157H551.565a39.157,39.157,0,0,1,39.157,39.157V561.848a39.157,39.157,0,0,1-39.157,39.157H408.227a39.157,39.157,0,0,1-39.157-39.157V306.5H366.6Z" transform="translate(360 631.472)" fill="#3f3d56"/><path d="M406.647,161.715h18.71a13.893,13.893,0,0,0,12.863,19.14h82.116a13.893,13.893,0,0,0,12.863-19.14h17.476a29.242,29.242,0,0,1,29.242,29.242V561.576a29.242,29.242,0,0,1-29.242,29.242H406.647A29.242,29.242,0,0,1,377.4,561.576h0V190.957a29.242,29.242,0,0,1,29.242-29.242Z" transform="translate(360 631.472)" fill="#fff"/><rect width="61.715" height="14.892" transform="translate(807.804 897.016)" fill="#ff9f1c"/><rect width="67.592" height="14.892" transform="translate(804.865 961.009)" fill="#e5e5e5"/><rect width="150.858" height="14.892" transform="translate(763.232 993)" fill="#e5e5e5"/><rect width="150.858" height="14.892" transform="translate(763.232 1024.99)" fill="#e5e5e5"/><rect width="1" height="10.353" transform="translate(719.684 1060.417) rotate(-64.361)" opacity="0.2"/><circle cx="43.23" cy="43.23" r="43.23" transform="translate(795.508 1081.945)" fill="#1462e1"/><path d="M127.351,360.424l-12.938-16.637,7.524-5.852,6.126,7.877,20.7-21.848,6.921,6.557Z" transform="translate(707.268 783)" fill="#fff"/></g></svg>