<svg xmlns="http://www.w3.org/2000/svg" xmlns:xlink="http://www.w3.org/1999/xlink" width="327" height="246.297" viewBox="0 0 327 246.297"><defs><linearGradient id="a" x1="0.324" y1="0.84" x2="0.771" y2="0.067" gradientUnits="objectBoundingBox"><stop offset="0.01" stop-color="#2e3192" stop-opacity="0"/><stop offset="1" stop-color="#0071bc"/></linearGradient><linearGradient id="b" x1="0.167" y1="0.963" x2="0.757" y2="0.163" xlink:href="#a"/><linearGradient id="c" x1="0.189" y1="0.94" x2="0.896" y2="0.062" gradientUnits="objectBoundingBox"><stop offset="0.01" stop-color="#2e3192" stop-opacity="0"/><stop offset="1" stop-color="#9e005d"/></linearGradient><linearGradient id="d" x1="0.208" y1="0.898" x2="0.854" y2="0.001" xlink:href="#c"/></defs><g transform="translate(-1279 -477)"><ellipse cx="163.5" cy="71.35" rx="163.5" ry="71.35" transform="translate(1279 580.597)" fill="#ff9f1c"/><path d="M164.27,270.43,97.06,249.27l88-48.88,21.89-12.17L262.32,211C256,214.88,170.48,266.42,164.27,270.43Z" transform="translate(1252.23 450.147)" fill="#bfd1e5" opacity="0.48"/><path d="M175.07,192.41l-18.16-25.2-23.65-8.29-36.2,15.99L40.65,210.27l56.41,39,75.93-42.53" transform="translate(1252.23 450.147)" opacity="0.48" fill="url(#a)"/><path d="M200.76,100.81l3.47,2.92-.53,88.71,3.08,2,4.24-2.65,4.24-91C211.42,100.78,204.61,101,200.76,100.81Z" transform="translate(1252.23 450.147)" fill="#f2f2f2"/><path d="M164.5,142.48l-31.24,16.44-.93,7.72,33.06-18.66" transform="translate(1252.23 450.147)" fill="#e27623"/><path d="M165.77,129.88l12.87,46.41-2.36,1.36a14.671,14.671,0,0,1-1.76-1.09c-.69-.53-16.7-48.77-16.7-48.77" transform="translate(1252.23 450.147)" fill="#e27623"/><path d="M136.09,120.83l-8.78,27.41.75,54.81,1.97,1.3,2.72-1.7,2.03-54.44,7.92-27.38" transform="translate(1252.23 450.147)" fill="#e27623"/><path d="M170.58,117.54s1,6.07-1.12,9.45-7.63-5-7.63-5" transform="translate(1252.23 450.147)" fill="#ffb469"/><path d="M141.47,84.41l1.23,22.2-5.82,3.02-1.07-23.8" transform="translate(1252.23 450.147)" fill="#ca6b00"/><path d="M104.92,100.76l-3.91,30-3.95,44.15,2.54,1.5,2.52-1.58,5.63-43.38,3.78-30.69" transform="translate(1252.23 450.147)" fill="#e27623"/><path d="M108.87,104.5c-1.64.5-5.16-2.08-6.21-3.74-5.77-9.07-4.11-21.38,6.28-27.13,4.6-2.54,9.35-5.07,13.92-7.69,4.06-2.32,8.37-4.3,12.31-6.83a9,9,0,0,1,1.63-.9c2-.77,4.66.36,5.91,2" transform="translate(1252.23 450.147)" fill="#ffb469"/><path d="M108.44,104.11c-2.78-.1-4.37-3.78-5.19-5.95-2.26-6-2.69-17.27,4.09-20.67a.81.81,0,0,0,.48-.65l13-7.52,10.07-5.81c1.76-1,3.43-2.17,5.19-3.2s3.49-2.21,5.43-1c2.13,1.28,2.42,3.69,2.75,5.94a36,36,0,0,1-.8,15.57c-1.06,3.37-3.73,5.68-6.69,7.4l-9.35,5.42-17.34,10a3.7,3.7,0,0,1-.9.42,2.59,2.59,0,0,1-.74.05Z" transform="translate(1252.23 450.147)" fill="#fcbd4c"/><path d="M106.54,128.14l-.53.3a13,13,0,0,0-3.88,2.93c-2.63,3.3-.09,7.07,2.52,9.38,7.05,6.27,17.74,11.4,27.31,9.08,8.32-2,16.09-5.91,23.39-10.3,6-3.6,13.47-7.94,15-15.36.72-3.43-.61-6.66-2.84-9.24-15-17.4-36.14-1.06-51,7.45Z" transform="translate(1252.23 450.147)" fill="#ffb469"/><path d="M101.34,128.82c-.12.11-.79,4.92-.31,6.36a17.93,17.93,0,0,0,4.31,6.16c1.75,1.41.7-8.41.7-8.41" transform="translate(1252.23 450.147)" fill="#ffb469"/><path d="M106.54,124l-.53.3a13,13,0,0,0-3.88,2.93c-2.63,3.3-.09,7.07,2.52,9.38,7.05,6.27,17.74,11.4,27.31,9.08,8.32-2,16.09-5.91,23.39-10.3,6-3.6,13.47-7.94,15-15.36.72-3.43-.61-6.66-2.84-9.24-15-17.4-36.14-1.06-51,7.45Z" transform="translate(1252.23 450.147)" fill="#fcbd4c"/><path d="M120.09,153l1.16,85,3.08,2,4.24-2.65,3.12-83.7Q125.88,153.42,120.09,153Z" transform="translate(1252.23 450.147)" fill="#f2f2f2"/><path d="M251.88,126.67,255,210.41l4.24,2.65,3.08-2,.61-91C259,120,255.62,127.63,251.88,126.67Z" transform="translate(1252.23 450.147)" fill="#f2f2f2"/><path d="M197.47,209.34a31.47,31.47,0,0,0-6.26-3.82c-2.31-1-8.95-8.76-9.45-9.54s-1.63-4.47-2.82-4.72-3.88,1.16-3.88,1.16-3.75-3.85-7-2.63c0,0-3,1.6-2.94,10.17a2,2,0,0,0-.28.21,34.877,34.877,0,0,0-.32,4,11.41,11.41,0,0,0,5,4.55c2.62,1.38,8.32,6.2,12,7.17s10.95.59,13.39-.35a4.38,4.38,0,0,0,2.94-3.56,3.83,3.83,0,0,0-.38-2.64Z" transform="translate(1252.23 450.147)" fill="#e05e00"/><path d="M175.84,192.09s-4.4-3.63-7.75-2.3-2.93,9-2.93,9,0,4.39,5.33,7,4.43,4.84,11.38,7,14.33.43,15.68-1.67-3-3.93-3.3-4.2-6.54-4.1-7.95-6-3.93-5.21-4.82-6.85-1.22-3.09-2.92-3a5.14,5.14,0,0,0-2.72,1.02Z" transform="translate(1252.23 450.147)" fill="#ffc019"/><path d="M188.75,202.9h0a16.687,16.687,0,0,0-2.77-.34q.28-.83.54-1.67a9.769,9.769,0,0,1-.67-.76l-.06.05a11.311,11.311,0,0,0-2.05-.19l.59-1.08a.45.45,0,0,0,.06-.31.38.38,0,0,0-.27-.35.5.5,0,0,0-.25-.05c-.79-.15-1.58-.28-2.37-.38q.37-.61.79-1.18c.36-.5-.46-1-.82-.48a16,16,0,0,0-1,1.56,13.34,13.34,0,0,0-4.23.26c-.6.14-.34,1.06.25.92a11.9,11.9,0,0,1,3.5-.27A16.291,16.291,0,0,0,179,201c-.47.28,0,1,.54.79a10,10,0,0,1,2.54-.76q-.32.63-.62,1.26a6.107,6.107,0,0,0-.3.64.68.68,0,0,1-.09.17h0a.48.48,0,0,0,.31.9,15.718,15.718,0,0,1,3.25-.51q-.4,1.15-.83,2.3a.48.48,0,0,0,.7.54,33.747,33.747,0,0,1,4.35-2.46h.14a.47.47,0,0,0,.58-.38A3.868,3.868,0,0,1,188.75,202.9Zm-8.61-2.32a15.1,15.1,0,0,1,.81-1.86c.73.08,1.46.2,2.18.33l-.54,1a11.2,11.2,0,0,0-2.46.53Zm2.2,2.27c.14-.36.26-.72.39-1s.31-.61.47-.91a10.28,10.28,0,0,1,2.22.15q-.23.73-.48,1.46a16.581,16.581,0,0,0-2.61.3Zm2.85,1.94q.23-.64.45-1.27a15.245,15.245,0,0,1,1.62.11c-.72.37-1.41.75-2.08,1.16Z" transform="translate(1252.23 450.147)" fill="#e05e00"/><path d="M181.74,213.17a31.471,31.471,0,0,0-6.26-3.82c-2.31-1-8.95-8.76-9.45-9.54s-1.63-4.47-2.82-4.72-3.88,1.16-3.88,1.16-3.75-3.85-7-2.63c0,0-3,1.6-2.94,10.17a2,2,0,0,0-.28.21,34.88,34.88,0,0,0-.32,4,11.41,11.41,0,0,0,5,4.55c2.62,1.38,8.32,6.2,12,7.17s10.95.59,13.39-.35a4.38,4.38,0,0,0,2.94-3.56,3.83,3.83,0,0,0-.38-2.64Z" transform="translate(1252.23 450.147)" fill="#e05e00"/><path d="M160.12,195.92s-4.4-3.63-7.75-2.3-2.93,9-2.93,9,0,4.39,5.33,7,4.43,4.84,11.38,7,14.33.43,15.68-1.67-3-3.93-3.3-4.2-6.54-4.1-7.95-6-3.93-5.21-4.82-6.85-1.22-3.09-2.92-3a5.14,5.14,0,0,0-2.72,1.02Z" transform="translate(1252.23 450.147)" fill="#ffc019"/><path d="M173,206.73h0a16.688,16.688,0,0,0-2.77-.34q.28-.83.54-1.67a9.766,9.766,0,0,1-.67-.76l-.1.04a11.311,11.311,0,0,0-2.05-.19l.59-1.08a.45.45,0,0,0,.06-.31.38.38,0,0,0-.27-.35.5.5,0,0,0-.25-.05c-.79-.15-1.58-.28-2.37-.38q.37-.61.79-1.18c.36-.5-.46-1-.82-.48a16,16,0,0,0-1,1.56,13.34,13.34,0,0,0-4.23.26c-.6.14-.34,1.06.25.92a11.9,11.9,0,0,1,3.5-.27,16.288,16.288,0,0,0-.94,2.41c-.47.28,0,1,.54.79a10,10,0,0,1,2.54-.76q-.32.63-.62,1.26a6.112,6.112,0,0,0-.3.64.68.68,0,0,1-.09.17h0a.48.48,0,0,0,.31.9,15.718,15.718,0,0,1,3.25-.51q-.4,1.15-.83,2.3a.48.48,0,0,0,.7.54,33.746,33.746,0,0,1,4.35-2.46h.14a.47.47,0,0,0,.58-.38A4.471,4.471,0,0,1,173,206.73Zm-8.61-2.32a15.1,15.1,0,0,1,.81-1.86c.73.08,1.46.2,2.18.33l-.54,1a11.2,11.2,0,0,0-2.43.53Zm2.2,2.27c.14-.36.26-.72.39-1s.31-.61.47-.91a10.282,10.282,0,0,1,2.22.15q-.23.73-.48,1.46a16.58,16.58,0,0,0-2.59.3Zm2.85,1.94q.23-.64.45-1.27a15.241,15.241,0,0,1,1.62.11c-.69.36-1.38.75-2.06,1.16Z" transform="translate(1252.23 450.147)" fill="#e05e00"/><path d="M153.75,98.8c1,2.17,26.4,34.18,30.92,42.9s-3,50.44-3,50.44-9.06,4-16.1-.38c0,0-.39-34.51-2.47-36.89S135.88,132.14,133.28,128s7.17-27.46,7.17-27.46" transform="translate(1252.23 450.147)" fill="#42210b"/><path d="M139.24,104.61c1,2.17,26.4,34.18,30.92,42.9s-3,50.44-3,50.44-9.06,4-16.1-.38c0,0-.39-34.51-2.47-36.89s-27.58-22.5-29.76-26.87c-6.75-13.49.51-30.9.51-30.9" transform="translate(1252.23 450.147)" fill="#42210b"/><path d="M152.32,87.24c.46-5.2,1.7-10.29,2.15-15.48,1-11.71-5.84-19-16.39-20.82a69.23,69.23,0,0,0-16.13,12.35c-4.8,5.4-4.47,27.87-4.47,27.87,1,6.21.39,11,.69,14.31,7.9,8.06,22.33,4,32-1.83C151.88,98.34,151.83,92.77,152.32,87.24Z" transform="translate(1252.23 450.147)" fill="#ff6161"/><path d="M136.38,40.51H135.3a.64.64,0,1,0,0,1.28h1.08a.64.64,0,0,0,0-1.28Z" transform="translate(1252.23 450.147)" fill="#1c5028"/><path d="M145.56,46a9.84,9.84,0,0,1-10.06,2c-.78-.27-1.12,1-.34,1.24a11.13,11.13,0,0,0,11.31-2.34C147.08,46.36,146.17,45.46,145.56,46Z" transform="translate(1252.23 450.147)" fill="#1c5028"/><path d="M150.15,37.72S149,53.57,145,54.33,136.54,53,135.15,51s-4.35-12-2.92-13.83S147.91,34.82,150.15,37.72Z" transform="translate(1252.23 450.147)" fill="#ffb92c"/><path d="M134.25,48.77l-.6,7.82s2.41,2,9.39-.33l1-4.53" transform="translate(1252.23 450.147)" fill="#ffb92c"/><path d="M152.76,32.12a6.46,6.46,0,0,0-2.8-.44,6.26,6.26,0,0,0-2.17-3.47,6.55,6.55,0,0,0-6.83-.55,5,5,0,0,0-1.05.75,5.84,5.84,0,0,0-4.53-1.53,4.93,4.93,0,0,0-4.2,3.27,4.14,4.14,0,0,0-.2,1.53,4.754,4.754,0,0,0-3.64,7.39,4.11,4.11,0,0,0-.91,4.35,4.56,4.56,0,0,0,3.66,2.89,4.36,4.36,0,0,0-.13,2.34c.83,1.88,3.1,2.67,5.21,3.15.09-1,.19-2,.25-3a1.07,1.07,0,0,1,.07-.27,8.82,8.82,0,0,1-1.79-2.2c-.67-1.09-1.15-2.64,0-3.63a2.389,2.389,0,0,1,3.53.79A12.06,12.06,0,0,1,138,42h0c1-2.54,3.65-2.81,6.14-2.83,3.77,2,9.29,3.43,10.82-1.37C155.65,35.65,155,33.05,152.76,32.12Z" transform="translate(1252.23 450.147)" fill="#1c5028"/><path d="M138,42s-.62,4.67.38,5.53,3.72,1.21,5.66,1.07,3.8.07,4.45,0c0,0-1.36,4.86-2.94,6.2s-5.8-.11-6.81-.74S136.2,49,136.2,49l.18-6.85Z" transform="translate(1252.23 450.147)" fill="#1c5028"/><path d="M162,175.95l3.47,2.92L165,267.58l3.08,2,4.24-2.65,4.24-91C172.67,175.91,165.86,176.11,162,175.95Z" transform="translate(1252.23 450.147)" fill="#f2f2f2"/><path d="M262.93,111.46v8.57h-5.26Z" transform="translate(1252.23 450.147)" fill="#d3514a"/><path d="M116.62,151.29v-7.3l4.64,5.83Z" transform="translate(1252.23 450.147)" fill="#d3514a"/><path d="M189.83,99l-63.44,36.25S106,148.84,124.12,164.7s43,15.86,58.91,9.06S255.54,133,255.54,133s21.67-16.28-9.06-34S189.83,99,189.83,99Z" transform="translate(1252.23 450.147)" fill="#bfd1e5"/><path d="M189.83,92l-63.44,36.25S106,141.84,124.13,157.7s43,15.86,58.91,9.06S255.54,126,255.54,126s21.67-16.28-9.06-34S189.83,92,189.83,92Z" transform="translate(1252.23 450.147)" fill="#1462e1"/><path d="M327.66,184.69l-8-11.12-10.48-3.67-16,7.08-25,15.67,20.13,13.92C301.28,199.08,314.87,192.56,327.66,184.69Z" transform="translate(1252.23 450.147)" opacity="0.48" fill="url(#b)"/><path d="M159.73,150.21a15.879,15.879,0,0,0-2.17-2.43,17.568,17.568,0,0,0-1.73-1.13A6.19,6.19,0,0,1,152,143l-5.63,2.49-16,10,12.88,8.91c6.21-3.57,12.63-6.8,18.88-10.3a32.38,32.38,0,0,0-2.4-3.89Z" transform="translate(1252.23 450.147)" opacity="0.48" fill="url(#c)"/><path d="M182.74,130.78a15.88,15.88,0,0,0-2.17-2.43,17.571,17.571,0,0,0-1.73-1.13,6.19,6.19,0,0,1-3.83-3.61l-5.63,2.49-16,10,20.44,14.3c6.21-3.57,17.74-9.41,24-12.91C197.09,136.14,183.64,132,182.74,130.78Z" transform="translate(1252.23 450.147)" opacity="0.48" fill="url(#d)"/><path d="M185.44,147.75,155.6,130.37l39.58-22.75,29.78,16.09" transform="translate(1252.23 450.147)" fill="#68e1fd"/><path d="M185.44,147.75,155.6,130.37l39.58-22.75,29.78,16.09" transform="translate(1252.23 450.147)" opacity="0.38"/><path d="M193.16,113.46s-7.83,34.72-7.72,34.29,38.63-21.13,38.89-21.87,10.19-36,10.19-36Z" transform="translate(1252.23 450.147)" fill="#68e1fd"/><path d="M159,114.77l4.93,1s5.79,1.2,5.68,1.93-5.68.72-5.68.72,8,2.7,8.3,3.69-1.48,1-1.48,1,1.26,1.41.38,2.47-2.15,0-2.15,0,2,1.43.25,2-5.31-2.36-5.31-2.36a3.45,3.45,0,0,1-1,2c-.82.63-10.16-6.57-11.59-8.72" transform="translate(1252.23 450.147)" fill="#ffb92c"/><path d="M131.69,88.86s26.66,22.74,27.29,24.6S153,119,148.82,120c-2.09.49-5.08-1.29-6.86-2.14a84.93,84.93,0,0,1-11-6.4,66.879,66.879,0,0,1-10.32-8.34c-3.63-3.7-5.29-7.34-5.14-12.66.23-8.16.78-19.37,5.74-26.26,0,0,3.78-5.22,8.29-1.2C129.55,63,136.57,69.25,131.69,88.86Z" transform="translate(1252.23 450.147)" fill="#f64a4a"/><path d="M181.08,97.64c.39,0,10.83,3.8,10.83,3.8l8.88,6a1.82,1.82,0,0,1-1.35.77s.92.8.08,1.39a1.32,1.32,0,0,1-1.57,0,2.65,2.65,0,0,1-2,1c-1.17-.08-7.39-4.73-7.94-4.11s3,2.39,2.2,3.5-4-.83-5.1-1.77-6.47-5.94-6.47-5.94" transform="translate(1252.23 450.147)" fill="#ffb92c"/><path d="M153.57,63s6.25,19,8.44,21.11,22,12.59,22,12.59.2,7.42-6.81,9.76c0,0-19.49-4.14-25.83-13.31" transform="translate(1252.23 450.147)" fill="#f64a4a"/><ellipse cx="8.79" cy="4.73" rx="8.79" ry="4.73" transform="translate(1399.81 595.537)" fill="#fff"/><path d="M147.58,150.12l-1.61-21.91,21.51.53-2.32,21.38" transform="translate(1252.23 450.147)" fill="#fff"/><ellipse cx="10.78" cy="6.09" rx="10.78" ry="6.09" transform="translate(1398.2 572.267)" fill="#cf6938"/><path d="M148.37,125.25v3s.91,4,8.54,4,8.24-4.43,8.24-4.43V125.6" transform="translate(1252.23 450.147)" fill="#fc8754"/><ellipse cx="8.39" cy="4.88" rx="8.39" ry="4.88" transform="translate(1400.61 570.847)" fill="#cf6938"/><ellipse cx="7.03" cy="3.96" rx="7.03" ry="3.96" transform="translate(1402.11 571.437)" fill="#fc8754"/></g></svg>