<svg xmlns="http://www.w3.org/2000/svg" xmlns:xlink="http://www.w3.org/1999/xlink" width="332.492" height="282.267" viewBox="0 0 332.492 282.267"><defs><linearGradient id="a" x1="0.327" y1="0.794" x2="0.582" y2="0.356" gradientUnits="objectBoundingBox"><stop offset="0" stop-color="#ff0" stop-opacity="0"/><stop offset="1" stop-color="#f15a24"/></linearGradient><linearGradient id="b" x1="0.28" y1="0.973" x2="0.463" y2="0.595" xlink:href="#a"/><linearGradient id="c" x1="0.273" y1="0.932" x2="0.494" y2="0.542" gradientUnits="objectBoundingBox"><stop offset="0" stop-color="#fff" stop-opacity="0"/><stop offset="1" stop-color="#7f2e00"/></linearGradient></defs><g transform="translate(-32.824 -10.366)"><path d="M194.15,290,39.29,198.48c-4.93-2.77-9.16-7.31-4.35-10.29L190.35,98.61c2.33-1.44,5.87-2.39,8.24-1l162.56,94.35c4.93,2.86,5.81,10.86.88,13.72L214.56,289.85a20.59,20.59,0,0,1-20.41.15Z" fill="#ff9f1c"/><path d="M193,82.85c-1.81-1.06-4.21-.7-6.32,0-8.66,3-21.17,9-21,19.77a102.342,102.342,0,0,0,1.72,17.19c.41,2.23,2.33,12.4,3.66,14.32,2,2.87,9.19-11,10.85-12.08,2.84-1.86,5.6-3.84,8.32-5.87,2-1.51,6.54-3.9,7.36-6.29a5.5,5.5,0,0,0,.21-1.66,91.621,91.621,0,0,0-.84-15.11C196.46,89.91,196.23,84.75,193,82.85Z" fill="#bfd1e5"/><path d="M70.09,214.72l30.85-17.49-19.37-11L50.5,203.53C57.06,207.19,63.57,211,70.09,214.72Z" opacity="0.32" fill="url(#a)"/><path d="M175.55,199.25l-65.69,41.12,66.41,38.44,59.23-38.22" opacity="0.32" fill="url(#b)"/><path d="M132.25,152.94l12.18,64.31,66.44,38.53,104.46-64.43,5.34-63.71" fill="#e57a61"/><path d="M132.25,152.94l71.64,41.94,116.78-67.24-71.7-42.09Z" fill="#ff9476"/><path d="M210.87,255.78l-6.39-60.9,116.19-67.24-5.34,63.71Z" fill="#d16550"/><path d="M222.16,38.12V69.57L261.24,47A9.59,9.59,0,0,0,266,38.94l.58-24.77A3.74,3.74,0,0,0,261,10.85l-34.64,20a8.4,8.4,0,0,0-4.2,7.27Z" fill="#ff9f1c"/><path d="M222.16,69.57V80.69l10.28-19.56" fill="#ff9f1c"/><path d="M210.7,134.4a5.27,5.27,0,0,0-1.85-4.16,1.07,1.07,0,0,0,.19-2.07c-1.61-.45-3.31-1.07-5-1.46a1,1,0,0,0-.37-.15,18.11,18.11,0,0,1-9.15-4.65,1.08,1.08,0,0,0-1.74,1.14,1.19,1.19,0,0,0-.65,1,1.07,1.07,0,0,0-.64,1.8,14.366,14.366,0,0,0,1.15,1.13.8.8,0,0,0,.07.21,1.17,1.17,0,0,0-.27.38c-.45-.42-.87-.86-1.3-1.22-1-.87-2.54.62-1.49,1.49a17.05,17.05,0,0,0,3.73,2.87c2,2,4.66,2.45,7.46,2.23l.31.19c1.33.88,1.21,2.57,1.42,4a1.07,1.07,0,0,0,1.93.25,7.66,7.66,0,0,0,0-4.71,2.69,2.69,0,0,1,1.6,1.75,24.384,24.384,0,0,1,.59,3.13c.25,1.33,2.29.77,2-.56h0a.92.92,0,0,0,1.08-1c0-.19,0-.39,0-.58a.93.93,0,0,0,.93-1.01Z" fill="#ffe9ca"/><path d="M231.32,111.92c.52-.91-.18-2.16-.68-3a17.74,17.74,0,0,0-3.59-3.83,1.08,1.08,0,0,0-1.71,1.17.93.93,0,0,0-.37-.08,1.59,1.59,0,0,0-1.18-.82c-.82-.71-1.93.33-1.59,1.24a1,1,0,0,0-.87,1,4.3,4.3,0,0,0,.75,2.22l-2-2c-.84-.82-2.33.36-1.61,1.34l.36.49a1.06,1.06,0,0,0,.46.36l.55.54h0q.91,1.35,1.94,2.61a.87.87,0,0,0-.14,1.27c1.19,1.53,4,6.27,6.37,4q.9,1.28,1.71,2.63a1,1,0,0,0,1.81-.1.82.82,0,0,0,.38-.88,9.531,9.531,0,0,0-.64-2.22,2.12,2.12,0,0,0,.34-3,3.51,3.51,0,0,0-.29-2.94Z" fill="#ffe9ca"/><path d="M220.45,115.58c2-4.89,6.67-8.4,11.61-10.56l-3.94-2.84c-4.41-3.89-8.66-8-13-12-4.88-4.49-9.49-10.6-16.47-11.59-3.2-.45-7,.26-10.13.91A17.81,17.81,0,0,0,179,84.38c-2.78,3-3.87,7.2-5,11a69.421,69.421,0,0,0-2.6,12.45c-.33,3-.68,6.63.52,9.53a26.65,26.65,0,0,0,2.81,5,54.451,54.451,0,0,0,11.67,9q1.71,1,3.49,1.91c2.77-3.74,7-7.38,11.63-8.85l-8.92-6,16.4-9.66Z" fill="#1462e1"/><path d="M201.73,113l-3.06-34.4-6.7-2-6.7,2.26c5.88,2.61,8.31,31.72,9.7,38.09C195.06,116.94,201.62,113.06,201.73,113Z" fill="#f7ffeb"/><path d="M206.73,130c-.22-.16-.43.21-.21.36a7,7,0,0,1,3,5c0,.27.45.27.42,0a7.44,7.44,0,0,0-3.21-5.36Z" fill="#bc3b1d"/><path d="M205.57,131.19a.208.208,0,0,0-.21.36,6.1,6.1,0,0,1,2.92,5.19.21.21,0,0,0,.42,0,6.52,6.52,0,0,0-3.13-5.55Z" fill="#bc3b1d"/><path d="M209.32,130.08a23.91,23.91,0,0,0-6-3.51c-.25-.1-.36.31-.11.41a23.21,23.21,0,0,1,5.77,3.4C209.23,130.55,209.53,130.25,209.32,130.08Z" fill="#bc3b1d"/><path d="M231.35,118.16a2.06,2.06,0,0,0,.67-2.44,8.444,8.444,0,0,0-.35-1,.2.2,0,0,0,.05-.07c.67-1.39-.2-2.69-.83-3.92-.12-.24-.49,0-.36.21.51,1,1.29,2.12.93,3.25a12,12,0,0,0-1.31-2.29c-.16-.22-.53,0-.36.21.83,1.13,3,4.58,1.35,5.71a.22.22,0,0,0-.07.07,41.782,41.782,0,0,0-2.32-5.08c-.13-.24-.49,0-.36.21a41.251,41.251,0,0,1,1.79,3.74q.33.79.62,1.6c.11.3.22.6.32.9s.16.41.18.52a1.17,1.17,0,0,1,0,.71.77.77,0,0,1-.91.52,1,1,0,0,1-.56-.39c-.12,0-.17-.22-.39-.57l-.45-.71-1.13-1.78L225.64,114c-.15-.23-.51,0-.36.21l3.61,5.69c.46.73,1.39,2.5,2.53,1.61,1-.75.14-2.41-.22-3.32a.18.18,0,0,0,.15-.03Z" fill="#bc3b1d"/><path d="M193.87,118.57q-3.2-3.26-6.11-6.78v-5.12a.635.635,0,1,0-1.27,0v3.54l-.79-1c-.5-.64-1.39.26-.9.9s1.14,1.44,1.71,2.14a.56.56,0,0,0,.28.34q2.94,3.56,6.17,6.85A.63.63,0,0,0,193.87,118.57Z" fill="#56403d" opacity="0.47"/><path d="M209.01,108.76l-2.58-10.72-2.13,13.44Z" fill="#56403d" opacity="0.47"/><path d="M186.69,80.31c.05.29,7.77,6.79,7.77,6.79l1.08-3.6,2.56,3.05.89-4.37-.32-3.56" fill="#c7d1b6"/><path d="M191.63,80.17c-5.45,2.09-11.68-2.31-9.44-11.78,2-8.63,12.63-7.6,12.63-7.6" fill="#dd966f"/><path d="M193.56,63c-5-.25-8.37,6.08-8.15,9.47a14.42,14.42,0,0,0,.72,3.71,1.47,1.47,0,0,1,.33.1,3.69,3.69,0,0,1,1.83,1.18c.5.68.67,1.54,1.15,2.24A6.51,6.51,0,0,0,193,82.14a11.83,11.83,0,0,0,1.26.14c6.68.4,6.66-14.68,6.87-15.66A10.55,10.55,0,0,0,193.56,63Z" fill="#ffe9ca"/><path d="M193.14,71l6-1.17a7.57,7.57,0,0,0,.13-3.31l.68,3.05h2.22s1.56-5.92-5.19-8.26S183.76,62.67,184,68.67a14,14,0,0,0,3.69,9.19s-3.4-5.71-2.23-3.28c1.44,3,2.9-2.73,2.84-4.46l.74,1.31Z" fill="#dd966f"/><path d="M189.42,75.42A3.26,3.26,0,0,0,188.33,73c-.61-.53-1.6-1-2.28-.31s-.4,1.77-.19,2.53A7.16,7.16,0,0,0,187.35,78c.7.83,1.89-.37,1.19-1.19A5.421,5.421,0,0,1,188,76a.83.83,0,0,0,1.42-.58Zm-2-.88a1.52,1.52,0,0,1,.31.88v.09a5,5,0,0,1-.31-.97Z" fill="#ffe9ca"/><ellipse cx="2.49" cy="2.8" rx="2.49" ry="2.8" transform="translate(189.47 71.21)" fill="none" stroke="#603813" stroke-miterlimit="10" stroke-width="0.25"/><ellipse cx="2.2" cy="2.8" rx="2.2" ry="2.8" transform="translate(196.17 69.61)" fill="none" stroke="#603813" stroke-miterlimit="10" stroke-width="0.25"/><path d="M195.51,73a.33.33,0,0,0-.65,0,4.84,4.84,0,0,0,.29,1.61,6.35,6.35,0,0,1,.49,1.65,7.739,7.739,0,0,1-1,.38c-.39.15-.22.78.17.63.57-.22,1.49-.31,1.45-1.07C196.24,75,195.5,74.1,195.51,73Z" fill="#d66145"/><line y1="0.44" x2="2.01" transform="translate(194.45 73.79)" fill="none" stroke="#603813" stroke-miterlimit="10" stroke-width="0.25"/><line x2="1.82" y2="1.15" transform="translate(187.72 72.64)" fill="none" stroke="#603813" stroke-miterlimit="10" stroke-width="0.25"/><path d="M195.15,78.42a1.51,1.51,0,0,1-2.2-.33c-.19-.21-.51.1-.32.32a2,2,0,0,0,2.83.33C195.67,78.54,195.35,78.22,195.15,78.42Z" fill="#d66145"/><circle cx="3.97" cy="3.97" r="3.97" transform="translate(176.1 67.01)" fill="#dd966f"/><path d="M197.73,61.94s-1.43-1.5-7.63,1.51c-5.53,2.68-3.77,9.19-3.77,9.19l-1.82,1.15s-2.83-6,.61-10.3c4.35-5.43,8.93-3.51,8.93-3.51S196.74,60.62,197.73,61.94Z" fill="#3f281c"/><path d="M195,79.74a.57.57,0,0,0-.51.42l-.06.07a6.1,6.1,0,0,1-6.31-1.74,3.59,3.59,0,1,0-1,.5.55.55,0,0,0,.06.1A7.24,7.24,0,0,0,195,81.23a.73.73,0,0,0,1.09-.27C196.53,80.22,195.69,79.68,195,79.74Z" fill="#3f281c"/><path d="M286.41,121.25a.18.18,0,0,1,0-.2c0-.07-1-.28-.95-.34s-.61-.2-.56-.37a8.73,8.73,0,0,1-3.39-2.3l-12.88,8.27,17.67,10.12,12.37-7.09C298.69,129.22,288.5,123.56,286.41,121.25Z" opacity="0.32" fill="url(#c)"/><path d="M295.33,112.73l-4.89-2.26c-1.52-.71-3.38-1.68-3.27-3.63a.16.16,0,0,0-.32,0c-.09,1.62,1.13,2.74,2.45,3.44,1.9,1,3.92,1.83,5.87,2.73C295.35,113.09,295.52,112.81,295.33,112.73Z" fill="#da4131"/><path d="M295.81,109.13v3.25a.16.16,0,0,0,.32,0v-3.25a.16.16,0,1,0-.32,0Z" fill="#da4131"/><path d="M293.69,116.13a7.16,7.16,0,0,0-4.3-2.87c-1.86-.59-3.92-1-5.73-.05a.14.14,0,0,0-.08.14,11.808,11.808,0,0,0-5.16,4.2c-.71,1.47-.09,3.54.45,5.06a6.67,6.67,0,0,0,2.93,3.78,7.86,7.86,0,0,0,4.95.76,11.94,11.94,0,0,0,5.21-2C294.49,123.34,295.25,118.84,293.69,116.13Zm-1.26,8.24a9.46,9.46,0,0,1-4.28,2.16,9,9,0,0,1-4.85.13,5.78,5.78,0,0,1-3.58-2.89,11,11,0,0,1-1.29-4.65c0-2,1.69-3.27,3.17-4.3a6.75,6.75,0,0,1,5.33-1.49.17.17,0,0,0,.15-.27,12.111,12.111,0,0,1,1.59.34,9.1,9.1,0,0,1,4,2,5.57,5.57,0,0,1,1.43,4.35,7.11,7.11,0,0,1-1.68,4.62Z" fill="#da4131"/><path d="M288.62,120.05A3.28,3.28,0,0,0,286,117.4c.39-.19.79-.36,1.17-.51.19-.08.11-.39-.09-.31a13.249,13.249,0,0,0-1.64.77h0a.14.14,0,0,0-.14.09,3.35,3.35,0,0,0-1.83,2.56,2.88,2.88,0,0,0,2.87,2.83,2.26,2.26,0,0,0,2.28-2.78Zm-2.65,2.4a2.4,2.4,0,0,1-2-3,3.39,3.39,0,0,1,1.59-1.77,2.94,2.94,0,0,1,2.69,2.05,2,2,0,0,1-2.25,2.72Z" fill="#da4131"/><path d="M287.49,119.59c-.26-.67-1.15-.52-1.56-1-.14-.16-.36.07-.23.23a1.64,1.64,0,0,0,.8.45,1.59,1.59,0,0,1,.53.24.14.14,0,0,0-.21.1l-.11.55a.16.16,0,0,0,.07.18C287.24,120.54,287.66,120,287.49,119.59Zm-.43.48.08-.37a.16.16,0,0,0,0-.08.33.33,0,0,1,.06.15A.352.352,0,0,1,287.06,120.07Z" fill="#da4131"/><path d="M272.42,123.93l17.89,10.24,13.47-7.78V113.02l-14.54-8.34-6.61,3.55Z" fill="#68e1fd"/><path d="M303.78,113.02l-6.45,3.72-7.02,17.43,13.47-7.78Z" fill="#68e1fd"/><path d="M272.42,123.93l17.89,10.24,13.47-7.78V113.02l-14.54-8.34-6.61,3.55Z" fill="#272322" opacity="0.22"/><path d="M303.78,113.02l-6.45,3.72-7.02,17.43,13.47-7.78Z" fill="#272322" opacity="0.55"/><path d="M297.33,116.74l-14.7-8.51-10.21,15.7,17.89,10.24Z" fill="#1462e1"/><ellipse cx="6.09" cy="5.93" rx="6.09" ry="5.93" transform="translate(279.88 114.84)" fill="#fdbf30"/><ellipse cx="0.81" cy="0.72" rx="0.81" ry="0.72" transform="translate(280.65 118.445) rotate(-49.86)" fill="#444a93"/><ellipse cx="0.81" cy="0.72" rx="0.81" ry="0.72" transform="translate(280.523 118.536) rotate(-60)" fill="#686ebc"/><ellipse cx="0.81" cy="0.72" rx="0.81" ry="0.72" transform="translate(283.886 116.61) rotate(-49.86)" fill="#444a93"/><ellipse cx="0.81" cy="0.72" rx="0.81" ry="0.72" transform="translate(283.759 116.68) rotate(-60)" fill="#686ebc"/><ellipse cx="0.81" cy="0.72" rx="0.81" ry="0.72" transform="translate(287.107 116.97) rotate(-49.86)" fill="#444a93"/><ellipse cx="0.81" cy="0.72" rx="0.81" ry="0.72" transform="translate(286.981 117.051) rotate(-60)" fill="#686ebc"/><ellipse cx="0.81" cy="0.72" rx="0.81" ry="0.72" transform="translate(289.279 120.177) rotate(-49.86)" fill="#444a93"/><ellipse cx="0.81" cy="0.72" rx="0.81" ry="0.72" transform="translate(289.162 120.253) rotate(-60)" fill="#686ebc"/><ellipse cx="0.81" cy="0.72" rx="0.81" ry="0.72" transform="translate(288.27 123.816) rotate(-49.86)" fill="#444a93"/><ellipse cx="0.81" cy="0.72" rx="0.81" ry="0.72" transform="translate(288.149 123.888) rotate(-60)" fill="#686ebc"/><ellipse cx="0.81" cy="0.72" rx="0.81" ry="0.72" transform="translate(280.556 122.172) rotate(-49.86)" fill="#444a93"/><ellipse cx="0.81" cy="0.72" rx="0.81" ry="0.72" transform="translate(280.429 122.254) rotate(-60)" fill="#686ebc"/><ellipse cx="0.81" cy="0.72" rx="0.81" ry="0.72" transform="translate(284.104 124.655) rotate(-49.86)" fill="#444a93"/><ellipse cx="0.81" cy="0.72" rx="0.81" ry="0.72" transform="translate(283.982 124.729) rotate(-60)" fill="#686ebc"/><ellipse cx="2.64" cy="2.58" rx="2.64" ry="2.58" transform="translate(283.33 117.81)" fill="none" stroke="#662d91" stroke-miterlimit="10" stroke-width="1"/><path d="M279,103.16s3.65-4.66,8.82-2.46,12.87,5.94,15,8.08,2.51,6.93,2.48,8c0,0-5.65-3.47-6.31-5.22a9.19,9.19,0,0,0-3.58-4.16c-1.15-.62-9.72-4.53-10.57-4.22S279,103.16,279,103.16Z" fill="#68e1fd"/><path d="M298,119.36l.2-.12a.2.2,0,0,0-.2-.34l-.2.12a.2.2,0,0,0,.2.34Z" fill="#68e1fd"/><path d="M275.56,110.12a1.66,1.66,0,0,1-.32-1.94c.44-.85.92-1.67,1.44-2.47,1.87-2.86,5.15-4.91,8.7-4.39,3.39.5,6.65,2.1,9.67,3.66,13,6.71,10.08,14.35,9.75,15s-.06,3.19-3.91,2.41-4.45-3.9-4.11-4.69,2.42-3.8.89-5.35-10.94-6.21-12-5.78-2.28,3.74-2.28,4.19S279.44,114,275.56,110.12Z" fill="#1462e1"/><path d="M283.24,110.82a1.88,1.88,0,0,0-.32-1.09c-1.16-1.8-3.6-2.55-5.65-2.61-1.06,0-2,.29-2.11,1.44-.28,2.31,1.74,3.64,3.77,4a5.51,5.51,0,0,0,2.55-.11,2.38,2.38,0,0,0,1.7-1.25,1.31,1.31,0,0,0,.06-.38Z" fill="#68e1fd"/><path d="M304.65,120.69a1.88,1.88,0,0,0-.32-1.09c-1.16-1.8-3.6-2.55-5.65-2.61-1.06,0-2,.29-2.11,1.44-.28,2.31,1.74,3.64,3.77,4a5.51,5.51,0,0,0,2.55-.11,2.38,2.38,0,0,0,1.7-1.25,1.31,1.31,0,0,0,.06-.38Z" fill="#68e1fd"/><path d="M283.24,110.82a1.88,1.88,0,0,0-.32-1.09c-1.16-1.8-3.6-2.55-5.65-2.61-1.06,0-2,.29-2.11,1.44-.28,2.31,1.74,3.64,3.77,4a5.51,5.51,0,0,0,2.55-.11,2.38,2.38,0,0,0,1.7-1.25,1.31,1.31,0,0,0,.06-.38Z" fill="#bfd1e5" opacity="0.5"/><path d="M304.65,120.69a1.88,1.88,0,0,0-.32-1.09c-1.16-1.8-3.6-2.55-5.65-2.61-1.06,0-2,.29-2.11,1.44-.28,2.31,1.74,3.64,3.77,4a5.51,5.51,0,0,0,2.55-.11,2.38,2.38,0,0,0,1.7-1.25,1.31,1.31,0,0,0,.06-.38Z" fill="#bfd1e5" opacity="0.5"/><path d="M199,184.97l20.95-12.47-24.62-14.54-21.54,12.48Z" fill="#56403d"/><path d="M208.16,184.03l20.95-12.48-24.62-14.53L182.95,169.5Z" fill="#1462e1"/><path d="M170.31,161.32l4.2,2.77,22.81-13.15-4.37-2.69Z" fill="#56403d"/><path d="M212,105.43l45.37-26.19A2.38,2.38,0,0,1,261,81.3v34.64a3.78,3.78,0,0,1-1.919,3.29L214.39,144.5a2.84,2.84,0,0,1-4.32-2.42V108.86a4,4,0,0,1,1.93-3.43Z" fill="#56403d"/><path d="M234.47,127.26v14.82l10.28-5.52V122" fill="#56403d"/><ellipse cx="17.45" cy="4.15" rx="17.45" ry="4.15" transform="translate(219.747 143.762) rotate(-26.12)" fill="#56403d"/><path d="M233.21,38.6c1.73-1,2.74,0,2.73,2.37a10,10,0,0,1-.81,3.64l-2.28,5.56,3.24-1.82v2.24l-5.86,3.29v-1l3.33-8.08a7.85,7.85,0,0,0,.73-2.85c0-1.1-.38-1.56-1.12-1.14a3,3,0,0,0-1.21,2.45l-1.53.43a7.06,7.06,0,0,1,.86-3,5.07,5.07,0,0,1,1.92-2.09Z" fill="#1462e1"/><path d="M242.87,42.06l1-.58v2.24l-1,.58v2.51l-1.66.93V45.23l-4,2.23V46.22l4-11.94,1.74-1Zm-1.66.93V37.84l-2,6.24,2-1.1" fill="#1462e1"/><path d="M252.47,26.99l-5.85,18.66-1.58.89,5.85-18.66Z" fill="#1462e1"/><path d="M259.3,24.12l-.01,1-3.56,14.46-1.64.91,3.23-13.03-3.61,2.03.01-2.24Z" fill="#1462e1"/><path d="M77.75,178.16v15.39h24.89V178.16" fill="#1462e1"/><ellipse cx="12.45" cy="6.12" rx="12.45" ry="6.12" transform="translate(77.75 172.04)" fill="#bfd1e5"/><ellipse cx="12.45" cy="6.12" rx="12.45" ry="6.12" transform="translate(77.75 188.03)" fill="rgba(20,98,225,0.73)"/><path d="M104.13,142.38c-2.63-1.07-6.27-4.65-9.45-4.54a37.2,37.2,0,0,0-1.93,9.45,85.711,85.711,0,0,0-.36,15.77q.11,1.75.29,3.5a2.79,2.79,0,0,0,.28,1q0,6.09,0,12.18a.39.39,0,0,0,.77,0q0-5.86,0-11.72a17.27,17.27,0,0,0,3.57-1.65,12.13,12.13,0,0,0,5-6.3c2-5.59.74-11.84,2.65-17.38C104.69,142.59,104.41,142.49,104.13,142.38Z" fill="#297600"/><path d="M98.75,133.21a9.76,9.76,0,0,0-3.56,3.64,6.1,6.1,0,0,0-.56,1.08l-.11.24h0a16.267,16.267,0,0,0-.6,1.93,2.41,2.41,0,0,1,1.32-1,3.29,3.29,0,0,1,2.08-.19,8.7,8.7,0,0,1,1.9,1c.89.54,1.74,1.14,2.62,1.7,4.13,2.62,9.62,2.89,12.8-.93a2.781,2.781,0,0,1,.11-.46C115.24,137.58,107.87,127.91,98.75,133.21Z" fill="#5fad00"/><path d="M112.83,142.27l.51-.34a.35.35,0,0,0-.1-.3c-2.49-2.56-5.17-5.07-8.58-6.33a14.7,14.7,0,0,0-7.66-.75c-.28.32-.53.66-.78,1a13.3,13.3,0,0,1,8.81.73c3,1.29,5.41,3.59,7.66,5.9A.37.37,0,0,0,112.83,142.27Z" fill="#297600"/><path d="M71,147.84a10.4,10.4,0,0,0-5.56,10c.29,7.35,12.4.17,15.61-6s3.72,2.64,3.72,2.64" fill="#297600"/><path d="M81.93,145.28a21.919,21.919,0,0,0-6.72.93A16.3,16.3,0,0,0,71,147.84a13.481,13.481,0,0,0,2.42,1.29,7.36,7.36,0,0,1,3.91,2.8,5.58,5.58,0,0,1,.47,1.11c.74,2.42.1,5.35,1.09,7.78s3,4.58,5.88,4.75c3.41.21,5-3.07,5.65-5.9s1.6-6.7.52-9.62C89.72,146.66,85.16,145.43,81.93,145.28Z" fill="#5fad00"/><path d="M86.42,156.74c-1.43-4.64-4.47-9-8.91-11.07h-.17l-.21.07-.8.21c5.17,1.92,8.42,7,9.75,12.23,1.7,6.67,1.12,13.88,1.14,20.7a.36.36,0,0,0,.71,0C87.92,171.61,88.6,163.8,86.42,156.74Z" fill="#297600"/></g></svg>