<svg xmlns="http://www.w3.org/2000/svg" xmlns:xlink="http://www.w3.org/1999/xlink" width="331.68" height="220.742" viewBox="0 0 331.68 220.742"><defs><linearGradient id="a" x1="0.5" x2="0.5" y2="1" gradientUnits="objectBoundingBox"><stop offset="0" stop-color="#ff9f1c"/><stop offset="1" stop-color="#80500e"/></linearGradient></defs><g transform="translate(-2531.333 -843)"><path d="M47.5,165.57,175.581,91.08a6.06,6.06,0,0,1,6.05,0L373.183,200.69a6.06,6.06,0,0,1,0,10.5L250.752,281.91a19.77,19.77,0,0,1-19.77,0L47.52,176a6.06,6.06,0,0,1-.02-10.43Z" transform="translate(2486.797 779.184)" fill="#ff9f1c"/><path d="M238.36,161.07c4.27,2.52,13.56,6.66,17.64,9.38l34-20.92-45.31-20.72-30.13,18.31C216.87,148.37,236.08,159.72,238.36,161.07Z" transform="translate(2402.988 779.184)" fill="url(#a)"/><path d="M132.37,223.35c5.17,3,16.39,8,21.33,11.34l41.14-25.3-54.79-25.06-36.52,22.15C106.37,208,129.6,221.73,132.37,223.35Z" transform="translate(2609.179 779.184)" fill="url(#a)"/><path d="M237.53,229.9c5.17,3,16.39,8,21.33,11.34L300,215.94l-54.79-25.06L208.74,213C211.54,214.54,234.74,228.27,237.53,229.9Z" transform="translate(2398.808 779.184)" fill="url(#a)"/><path d="M134.7,179.36a68.07,68.07,0,0,0-17.5-.86c-7.89.69-17.64,4.6-22.41,11.78-7.15,10.78,4.07,19.48,13.67,24.2a73.41,73.41,0,0,0,31.87,7.93c9.72.05,20.8-1.51,28.95-7.16a13.09,13.09,0,0,0,3.6-17.51C165.331,184.9,148.111,181.68,134.7,179.36Z" transform="translate(2640.686 777.184)" fill="none" stroke="#bfd1e5" stroke-miterlimit="10" stroke-width="2"/><path d="M164.492,208.77s-.91-14.55-1.25-18.15c-.31-3.25-1.39-17.56-10.34-22.07-11.3-5.71-24.34-13.12-36.37-9.67-9.76,2.8-13.09,36.57-13,38.83C103.742,201.75,134.022,223.14,164.492,208.77Z" transform="translate(2639.528 779.184)" fill="#1462e1"/><path d="M154.78,165.49c-.21-.1-6.61,4.68-6.9,11.78s-1.39,36.22-1.39,36.22-15.51-.91-25.14-7.6c0,0,2.19-33.78,5.23-40.4s11.55-6.62,11.55-6.62Z" transform="translate(2631.419 779.184)" fill="#68e1fd"/><path d="M154.78,165.49c-.21-.1-6.61,4.68-6.9,11.78s-1.39,36.22-1.39,36.22-15.51-.91-25.14-7.6c0,0,2.19-33.78,5.23-40.4s11.55-6.62,11.55-6.62Z" transform="translate(2631.419 779.184)" fill="#bfd1e5"/><path d="M120.27,139.62a14,14,0,0,1-3.78-6.49c-1.39-4.53.93-11.11,5.84-11.72s6.42,1.93,6.42,1.93,18.31-3.24,21.13,11.12h0c.52,4,2.72,18.61-9.18,21.81s-7.62-13.71-7.62-13.71" transform="translate(2641.079 779.184)" fill="#4b1b13"/><path d="M123.04,136.45v13c-.05,3.7,1.51,13.71,7.6,13.39s12.33-7.4,12.33-9c0,0,6.15-3.83,2.68-6.78s-3.75,2-3.75,2-1.89-2.74-2-10.1a32.11,32.11,0,0,1-16.86-2.51Z" transform="translate(2637.799 779.184)" fill="#ffac73"/><path d="M140.05,163.58c-3.11,2.86-8.16,3.4-12.83,2.73a1.52,1.52,0,0,1-1.4-1.32c-.08-1.43-.16-2.86-.29-4.29l16.05-7.85-1.24,10.23S140.24,163.28,140.05,163.58Z" transform="translate(2640.439 779.184)" fill="#ffac73"/><path d="M132.11,166.5a13.037,13.037,0,0,1-1.87-.2,1.47,1.47,0,0,1-1.35-1.28c0-.74-.07-1.49-.12-2.23,3.4,0,9.45-.8,12.64-7.1a13.73,13.73,0,0,1-9.3,10.81Z" transform="translate(2637.369 779.184)" fill="#e5894a"/><path d="M245.24,120a98.168,98.168,0,0,0-17.15.07c-7.66.67-17.13,4.46-21.76,11.44-6.94,10.47,3.95,18.91,13.27,23.51a71.289,71.289,0,0,0,30.92,7.69c9.44.05,20.2-1.47,28.11-7,8.8-6.11,6.06-18.23-3-23.29-7.13-4-11.44-6.5-19.13-9C253.13,122.48,248.74,120.27,245.24,120Z" transform="translate(2419.417 779.184)" fill="none" stroke="#bfd1e5" stroke-miterlimit="10" stroke-width="2"/><path d="M273.613,149.68s-.88-14.13-1.21-17.63c-.3-3.16-1.35-17-10-21.43-11-5.54-23.63-12.74-35.32-9.39-9.48,2.72-12.71,35.52-12.6,37.71C214.633,142.86,244.023,163.64,273.613,149.68Z" transform="translate(2419.455 779.184)" fill="#1462e1"/><path d="M258.561,106.77s2,12.3-9.56,13.27c-8.1.68-6.31-5.89-6.31-5.89s-4,3.22-8.18.73,2.68-12.29,5.84-12.94S251.031,101.49,258.561,106.77Z" transform="translate(2415.657 779.184)" fill="#fff"/><circle cx="9.15" cy="9.15" r="9.15" transform="translate(2667.598 845.894)" fill="#4b1b13"/><path d="M230.44,83.5a11,11,0,0,1-2.39-6.4,10.38,10.38,0,0,1,.16-3.37A4.7,4.7,0,0,1,230.39,71a11.221,11.221,0,0,0,2.13-1.82s23.93-4.65,26.68,9.29h0c.5,3.91.21,15.69-10.5,20.62-10.87,5-5.82-12.75-5.82-12.75" transform="translate(2420.228 779.184)" fill="#4b1b13"/><path d="M236.79,103.33l14.29-7-1.21,9.94s-.1.19-.29.49c-2.59,2.39-6.58,3.1-10.53,2.84a1.79,1.79,0,0,1-1.66-1.62C237.24,106.43,237.05,104.87,236.79,103.33Z" transform="translate(2419.678 779.184)" fill="#ffac73"/><path d="M241.059,80.84s-.84-4.66,4.41-5.47c1.4-.22,2.75-.22,3.61,1.09,1.05,1.62,1.2,3.53,2.72,4.9a5.35,5.35,0,0,0,5.58.89c0,1.55-.19,2.71-2.08,3.22S242.529,83.89,241.059,80.84Z" transform="translate(2409.158 779.184)" fill="#ffac73"/><path d="M249.734,76.42c-5.7-2-11.13-3.23-17.17-2.41a1,1,0,0,0-1,1c-.44-2.42-1-8.53,3.9-10.39,6.19-2.33,16.53.61,19.39,6.19a17.75,17.75,0,0,1,2,8.92A25.483,25.483,0,0,0,249.734,76.42Z" transform="translate(2419.394 779.184)" fill="#4b1b13"/><path d="M239.65,105.9l.23,2.09s9.51-.27,10.83-8Z" transform="translate(2417.188 779.184)" fill="#e28e54"/><path d="M234.347,80.42V93.01c0,3.6,3.55,13,7.38,13,6,0,12-7.19,12-8.76,0,0,6-3.72,2.6-6.58s-3.64,2-3.64,2-1.83-2.66-2-9.81a31.19,31.19,0,0,1-16.34-2.44Z" transform="translate(2415.831 779.184)" fill="#ffac73"/><path d="M264.28,146.07a17.691,17.691,0,0,1-1.59-1.11,106.661,106.661,0,0,1,2.86-21.24c.29-1.22,2.16-.7,1.87.52a104.331,104.331,0,0,0-2.83,22Z" transform="translate(2377.408 779.184)" fill="#5d84c1"/><path d="M229.84,154.09a5.8,5.8,0,0,0-.83.08l-.71-24.51a1,1,0,0,1,1.94,0l.72,24.34A6.751,6.751,0,0,0,229.84,154.09Z" transform="translate(2448.288 779.184)" fill="#5d84c1"/><path d="M237.659,97.12a14.49,14.49,0,0,1-4.18-7.66c-.73-4.58,5.38-2.51,6.37-.53S240.489,96.06,237.659,97.12Z" transform="translate(2433.779 779.184)" fill="#4b1b13"/><path d="M239.332,184.69a101.092,101.092,0,0,0-17.66.07c-7.89.69-17.64,4.6-22.41,11.78-7.15,10.78,4.07,19.48,13.67,24.2a73.41,73.41,0,0,0,31.84,7.92c9.72.05,20.8-1.51,28.95-7.16,9.07-6.29,6.24-18.78-3.07-24-7.34-4.1-11.78-6.69-19.7-9.22C247.482,187.2,242.932,184.92,239.332,184.69Z" transform="translate(2431.296 779.184)" fill="none" stroke="#bfd1e5" stroke-miterlimit="10" stroke-width="2"/><path d="M269.962,215.84s-.91-14.55-1.25-18.15c-.31-3.25-1.39-17.56-10.34-22.07-11.3-5.71-24.34-13.12-36.37-9.67-9.76,2.8-13.09,36.57-13,38.83C209.252,208.82,239.522,230.21,269.962,215.84Z" transform="translate(2428.586 779.184)" fill="#e55600"/><path d="M252.3,177.35c0,.66-8,9.75-9.9,8.57s-2.81-9.31-4-8.57-5.53,6-6.17,5.58.94-14.35,2.22-16.69S252.3,172.18,252.3,177.35Z" transform="translate(2423.171 779.184)" fill="#2b415d"/><path d="M228.47,143.51v13c-.05,3.7,1.51,13.71,7.6,13.39s12.33-7.4,12.33-9c0,0,6.15-3.83,2.68-6.78s-3.75,2-3.75,2-1.89-2.74-2-10.1a32.11,32.11,0,0,1-16.86-2.51Z" transform="translate(2426.938 779.184)" fill="#ffac73"/><path d="M245.52,170.65c-3.11,2.86-8.16,3.4-12.83,2.73a1.52,1.52,0,0,1-1.4-1.32c-.08-1.43-.16-2.86-.29-4.29l16.01-7.85-1.24,10.23A2.268,2.268,0,0,1,245.52,170.65Z" transform="translate(2429.538 779.184)" fill="#ffac73"/><path d="M237.54,173.57a13.037,13.037,0,0,1-1.87-.2,1.47,1.47,0,0,1-1.35-1.28c0-.74-.07-1.49-.12-2.23,3.4,0,9.45-.8,12.64-7.1a13.73,13.73,0,0,1-9.3,10.81Z" transform="translate(2426.508 779.184)" fill="#e5894a"/><path d="M221.242,148.89s-3.86-2.43-3.4-8.19,6.82-9,15.5-8.51,18.62,4.75,20,18.93,4.48,22.41-.55,24.49-13.04,4.39-21.43,3.39c0,0,8.15-16.11,7.3-27s-1-2.57-2-.77S221.242,148.89,221.242,148.89Z" transform="translate(2434.186 779.184)" fill="#4b1b13"/><path d="M226.86,220.66h-.9q.13-9.12,0-18.25a1,1,0,0,1,2,0q.08,9.06,0,18.12Z" transform="translate(2453.588 779.184)" fill="#bc424b"/><path d="M261.268,213h0l-.21-.1-.54-.3-.64-.35-.52-.25q0-10.84.64-21.67c.07-1.28,2.07-1.29,2,0q-.62,11.15-.65,22.32A1,1,0,0,1,261.268,213Z" transform="translate(2386.19 779.184)" fill="#bc424b"/><ellipse cx="13.95" cy="10.42" rx="13.95" ry="10.42" transform="matrix(0.185, 0.983, -0.983, 0.185, 2819.854, 913.679)" fill="#1462e1"/><ellipse cx="13.95" cy="10.42" rx="13.95" ry="10.42" transform="matrix(0.185, 0.983, -0.983, 0.185, 2705.816, 851.687)" fill="#1462e1"/><ellipse cx="13.95" cy="10.42" rx="13.95" ry="10.42" transform="matrix(0.185, 0.983, -0.983, 0.185, 2717.41, 931.903)" fill="#1462e1"/></g></svg>