<svg xmlns="http://www.w3.org/2000/svg" width="18" height="16.2" viewBox="0 0 18 16.2"><g transform="translate(-410.2 -585.6)"><path d="M793.2,44.3l4-4v11l-4-4v3.5a1.025,1.025,0,0,1-1,1h-12a1.025,1.025,0,0,1-1-1v-10a1.025,1.025,0,0,1,1-1h12a1.025,1.025,0,0,1,1,1Z" transform="translate(-369 550)" fill="#1462e1"/><path d="M452.456,1183.94a.737.737,0,0,1,.521.222.728.728,0,0,1,.223.518v5.18a.729.729,0,0,1-.223.518.737.737,0,0,1-.521.222h-5.211a.678.678,0,0,1-.521-.222.729.729,0,0,1-.223-.518v-5.18a.728.728,0,0,1,.223-.518.737.737,0,0,1,.521-.222h.372v-.74h.744v.74h2.978v-.74h.744v.74Zm0,5.92v-4.07h-5.211v4.07Zm-4.467-3.33h1.861v1.85h-1.861Z" transform="translate(-27 -597.6)" fill="#ff9f1c"/></g></svg>