<svg xmlns="http://www.w3.org/2000/svg" width="18" height="20.1" viewBox="0 0 18 20.1"><path d="M684.3,1011.2a2.051,2.051,0,0,1,2,2v14a2.051,2.051,0,0,1-2,2h-14a2.051,2.051,0,0,1-2-2v-14a2.051,2.051,0,0,1,2-2h4.2a3.27,3.27,0,0,1,1.1-1.5,2.708,2.708,0,0,1,3.4,0,3.269,3.269,0,0,1,1.1,1.5h4.2Zm-1,16v-1.4c0-.9-.7-1.6-2.1-2.2a9.959,9.959,0,0,0-3.9-.9,9.587,9.587,0,0,0-3.9.9c-1.3.6-2.1,1.3-2.1,2.2v1.4Zm-3.9-11.1a2.9,2.9,0,1,0,.9,2.1A2.878,2.878,0,0,0,679.4,1016.1Zm-1.4-4.6a.967.967,0,1,0,.3.7A.908.908,0,0,0,678,1011.5Z" transform="translate(-668.3 -1009.1)" fill="#1462e1"/></svg>