<svg xmlns="http://www.w3.org/2000/svg" width="27.6" height="21.4" viewBox="0 0 27.6 21.4"><g transform="translate(-486.4 -594)"><path d="M563.4,627.4h6l1.8,2h3.2a2.051,2.051,0,0,1,2,2v12a2.051,2.051,0,0,1-2,2h-16a2.051,2.051,0,0,1-2-2v-12a2.051,2.051,0,0,1,2-2h3.2Zm-.5,13.6a4.852,4.852,0,0,0,3.5,1.5,4.691,4.691,0,0,0,3.5-1.5,5.288,5.288,0,0,0,1.5-3.5,4.691,4.691,0,0,0-1.5-3.5,5.288,5.288,0,0,0-3.5-1.5,4.691,4.691,0,0,0-3.5,1.5,5.288,5.288,0,0,0-1.5,3.5A4.852,4.852,0,0,0,562.9,641Zm1.3-1.3a3.139,3.139,0,1,1,2.2.9A3.1,3.1,0,0,1,564.2,639.7Z" transform="translate(-70 -30)" fill="#1462e1"/><path d="M447.4,524.84a6,6,0,0,1,4.4-1.74,6.243,6.243,0,0,1,4.4,1.74,5.523,5.523,0,0,1,1.8,4.26,6.043,6.043,0,0,1-6.2,6,6.243,6.243,0,0,1-4.4-1.74,5.946,5.946,0,0,1,0-8.52Zm.868,7.62a4.871,4.871,0,0,0,3.472,1.44,5.006,5.006,0,0,0,4.96-4.8,4.472,4.472,0,0,0-1.488-3.36,5.134,5.134,0,0,0-3.472-1.44,5.006,5.006,0,0,0-4.96,4.8A4.567,4.567,0,0,0,448.266,532.46Zm4.092-6.42v2.4h2.48v1.2h-2.48v2.4h-1.24v-2.4h-2.48v-1.2h2.48v-2.4Z" transform="translate(56 70.9)"/></g></svg>